<?xml version="1.0" encoding="UTF-8"?>
<svg id="_Слой_1" data-name="Слой 1" xmlns="http://www.w3.org/2000/svg" viewBox="0 0 128 128">
  <defs>
    <style>
      .cls-1 {
        fill: #ffff00;
      }
    </style>
  </defs>
  <path class="cls-1" d="m51.5,98.13h26.11c2.15,0,3.89,1.74,3.89,3.89v26.11h-35v-25c0-2.76,2.24-5,5-5Z"/>
  <g>
    <path class="cls-1" d="m33.55,63.97c.07-1.53.55-2.97.55-2.97s.43-1.32,1.21-2.54c1.18-1.87,13.4-15.12,30.49-32.99,1.44-1.72,3.77-1.63,4.67-.58.82.95.68,2.97-.83,4.25-15.84,16.41-27.1,28.76-28.98,31.64-.37.57-1.35,2.08-1.27,4.02.07,1.71.89,3,1.36,3.58,8.85,10.95,17.71,21.89,26.56,32.84,1.12,2.6,1.44,5.42.17,6.75-1.72,1.8-6.69,1.26-11.08-3.08-6.92-11.33-13.83-22.67-20.75-34-.6-.84-2.23-3.39-2.08-6.92Z"/>
    <g>
      <path class="cls-1" d="m63.56,26.85c-.67-.64-1.35-1.28-2.02-1.92-1.32-1.2-3.18-1.05-4.01-.05-.58.7-.64,1.81-.18,2.78.89.97,1.78,1.94,2.67,2.92,1.18-1.24,2.36-2.49,3.54-3.73Z"/>
      <path class="cls-1" d="m92.55,58.25c-1.34-1.58-2.7-3.17-4.09-4.76-6.73-7.72-13.52-14.94-20.29-21.7-1.16,1.2-2.32,2.4-3.48,3.6,12.16,12.75,20.8,22.5,22.66,25.39.43.67,1.35,2.13,1.27,4.02-.07,1.71-.89,3-1.36,3.58l-26.56,32.84c-1.12,2.6-1.44,5.42-.17,6.75,1.72,1.8,6.69,1.26,11.08-3.08,6.92-11.33,13.83-22.67,20.75-34,.66-1.08,2.21-3.6,2.08-6.92-.1-2.52-1.13-4.51-1.91-5.72Z"/>
    </g>
  </g>
</svg>