<?xml version="1.0" encoding="UTF-8"?>
<svg xmlns="http://www.w3.org/2000/svg" version="1.1" viewBox="0 0 800 800">
  <!-- Generator: Adobe Illustrator 29.3.1, SVG Export Plug-In . SVG Version: 2.1.0 Build 151)  -->
  <defs>
    <style>
      .st0, .st1 {
        fill: none;
        stroke: #ffff00;
        stroke-miterlimit: 15.6;
        stroke-width: 50px;
      }

      .st1 {
        stroke-linecap: round;
      }

      .st2 {
        fill: #ffff00;
      }

      .st3 {
        display: none;
      }

      .st4 {
        fill: #1d1d1b;
        stroke: #000;
        stroke-miterlimit: 10;
      }
    </style>
  </defs>
  <g id="_Слой_2" data-name="Слой_2" class="st3">
    <rect class="st4" width="800" height="800"/>
  </g>
  <g id="_Слой_1" data-name="Слой_1">
    <g id="SVGRepo_iconCarrier">
      <path class="st0" d="M713.5,254.5l-168-168c-20.5-20.5-44.8-11.2-65.3,9.4l-18.7,18.8c-40.8,40.8-43.2,91.2-46,130.2-1.4,19.1-15.3,43-28.9,56.7L91.5,596.4c-25.5,25.5-19.8,61.6,5.8,87.2l19,19c25.6,25.5,61.6,31.5,87.3,5.8l295-295c13.7-13.7,37.5-27.4,56.7-28.9,38.9-2.9,91.6-7.6,130.1-46.1l18.7-18.7c20.5-20.5,29.9-44.8,9.3-65.3Z"/>
      <circle class="st2" cx="351.1" cy="448.9" r="31.2"/>
      <line class="st1" x1="451.6" y1="126.6" x2="673.4" y2="348.4"/>
    </g>
  </g>
</svg>