<?xml version="1.0" encoding="UTF-8"?>
<svg id="_Слой_1" data-name="Слой 1" xmlns="http://www.w3.org/2000/svg" viewBox="0 0 90.17 101.81">
  <defs>
    <style>
      .cls-1 {
        fill: #ffff00;
      }
    </style>
  </defs>
  <path class="cls-1" d="m32.59,71.81h26.11c2.15,0,3.89,1.74,3.89,3.89v26.11H27.59v-25c0-2.76,2.24-5,5-5Z"/>
  <g>
    <path class="cls-1" d="m89.69,49.52c.46-1.46.49-2.98.49-2.98s.04-1.38-.28-2.8c-.48-2.16-7.5-18.76-17.53-41.35-.77-2.1-3-2.81-4.19-2.13-1.09.62-1.65,2.57-.65,4.28,9.36,20.8,15.77,36.23,16.57,39.58.16.66.57,2.41-.17,4.22-.65,1.58-1.86,2.52-2.49,2.91-12.03,7.31-24.07,14.61-36.1,21.92-1.93,2.07-3.19,4.61-2.44,6.3,1.01,2.27,5.87,3.45,11.47.85,10.34-8.33,20.69-16.65,31.03-24.98.85-.59,3.25-2.43,4.3-5.8Z"/>
    <path class="cls-1" d="m.49,49.52C.03,48.06,0,46.54,0,46.54s-.04-1.38.28-2.8c.48-2.16,7.5-18.76,17.53-41.35.77-2.1,3-2.81,4.19-2.13,1.09.62,1.65,2.57.65,4.28C13.31,25.33,6.89,40.76,6.09,44.11c-.16.66-.57,2.41.17,4.22.65,1.58,1.86,2.52,2.49,2.91,12.03,7.31,24.07,14.61,36.1,21.92,1.93,2.07,3.19,4.61,2.44,6.3-1.01,2.27-5.87,3.45-11.47.85-10.34-8.33-20.69-16.65-31.03-24.98-.85-.59-3.25-2.43-4.3-5.8Z"/>
  </g>
</svg>