<?xml version="1.0" encoding="UTF-8"?>
<svg id="_Слой_1" data-name="Слой_1" xmlns="http://www.w3.org/2000/svg" version="1.1" viewBox="0 0 800 800">
  <!-- Generator: Adobe Illustrator 29.3.1, SVG Export Plug-In . SVG Version: 2.1.0 Build 151)  -->
  <defs>
    <style>
      .st0 {
        fill: none;
        stroke: #ffff00;
        stroke-miterlimit: 133.3;
        stroke-width: 50px;
      }
    </style>
  </defs>
  <g id="SVGRepo_iconCarrier">
    <circle class="st0" cx="400" cy="420.3" r="100"/>
    <path class="st0" d="M458.8,92c-12.3-5.1-27.8-5.1-58.8-5.1s-46.6,0-58.8,5.1c-16.3,6.8-29.3,19.7-36.1,36.1-3.1,7.5-4.3,16.1-4.8,28.8-.7,18.6-10.2,35.8-26.3,45.1-16.1,9.3-35.8,9-52.2.3-11.2-5.9-19.3-9.2-27.3-10.3-17.5-2.3-35.3,2.4-49.3,13.2-10.5,8.1-18.3,21.5-33.8,48.4-15.5,26.9-23.3,40.4-25,53.5-2.3,17.5,2.4,35.3,13.2,49.3,4.9,6.4,11.8,11.8,22.5,18.5,15.8,9.9,25.9,26.8,25.9,45.4s-10.1,35.5-25.9,45.4c-10.7,6.7-17.6,12.1-22.5,18.5-10.8,14-15.5,31.8-13.2,49.3,1.7,13.1,9.5,26.6,25,53.5,15.5,26.9,23.3,40.4,33.8,48.4,14,10.8,31.8,15.5,49.3,13.2,8-1.1,16.1-4.3,27.3-10.3,16.4-8.7,36.1-9,52.2.3,16.1,9.3,25.6,26.5,26.3,45.1.5,12.6,1.7,21.3,4.8,28.8,6.8,16.3,19.7,29.3,36.1,36.1,12.3,5.1,27.8,5.1,58.8,5.1s46.6,0,58.8-5.1c16.3-6.8,29.3-19.7,36.1-36.1,3.1-7.5,4.3-16.1,4.8-28.8.7-18.6,10.2-35.8,26.3-45.1,16.1-9.3,35.8-9,52.2-.3,11.2,5.9,19.3,9.2,27.3,10.3,17.5,2.3,35.3-2.4,49.3-13.2,10.5-8.1,18.3-21.5,33.8-48.4,15.5-26.9,23.3-40.4,25-53.5,2.3-17.5-2.4-35.3-13.2-49.3-4.9-6.4-11.8-11.8-22.5-18.5-15.7-9.9-25.9-26.8-25.9-45.4s10.1-35.5,25.9-45.4c10.7-6.7,17.6-12.1,22.5-18.5,10.8-14,15.5-31.8,13.2-49.3-1.7-13.1-9.5-26.6-25-53.5-15.5-26.9-23.3-40.4-33.8-48.4-14-10.8-31.8-15.5-49.3-13.2-8,1.1-16.1,4.3-27.3,10.3-16.4,8.7-36.1,9-52.2-.3-16.1-9.3-25.6-26.5-26.3-45.1-.5-12.6-1.7-21.3-4.8-28.8-6.8-16.3-19.7-29.3-36.1-36.1Z"/>
  </g>
</svg>