<?xml version="1.0" encoding="UTF-8"?>
<svg xmlns="http://www.w3.org/2000/svg" version="1.1" viewBox="0 0 800 800">
  <!-- Generator: Adobe Illustrator 29.3.1, SVG Export Plug-In . SVG Version: 2.1.0 Build 151)  -->
  <defs>
    <style>
      .st0 {
        stroke-linejoin: round;
      }

      .st0, .st1 {
        fill: none;
        stroke: #ffff00;
        stroke-linecap: round;
        stroke-width: 50px;
      }

      .st2 {
        display: none;
      }

      .st1 {
        stroke-miterlimit: 133.3;
      }

      .st3 {
        fill: #1d1d1b;
        stroke: #000;
        stroke-miterlimit: 10;
      }
    </style>
  </defs>
  <g id="_Слой_2" data-name="Слой_2" class="st2">
    <rect class="st3" width="800" height="800"/>
  </g>
  <g id="_Слой_1" data-name="Слой_1">
    <g id="SVGRepo_iconCarrier">
      <path class="st0" d="M222.3,180.6h197.1c87.1,0,157.7,70.6,157.7,157.7v4.9l76.5-47.8c24.3-15.2,54.9-16,80-2.1,25.1,13.9,40.6,40.3,40.6,69v109.7c0,28.7-15.5,55.1-40.5,69.1-25.1,13.9-55.7,13.1-80.1-2.1l-76.5-48v4.9c0,87.1-70.6,157.7-157.7,157.7h-197.1c-87.1,0-157.7-70.6-157.7-157.7v-157.7c0-87.1,70.6-157.7,157.7-157.7Z"/>
      <path class="st0" d="M320.8,495.9c-43.5,0-78.8-35.3-78.8-78.8s35.3-78.8,78.8-78.8,78.8,35.3,78.8,78.8-8.3,41-23.1,55.7c-14.8,14.8-34.8,23.1-55.7,23.1Z"/>
      <path class="st1" d="M577,343.2v147.8"/>
    </g>
  </g>
</svg>